# Blender v2.79 (sub 7) OBJ File: 'low_spec_Commodore_PET.blend'
# www.blender.org
mtllib low_spec_Commodore_PET.mtl
o pc_cpet
v 0.318783 0.000556 0.065567
v -0.029840 0.105000 0.128315
v 0.030431 0.050834 0.232707
v 0.094530 0.179914 -0.255254
v 0.223946 0.180290 -0.035546
v 0.120853 -0.000019 -0.270455
v 0.050506 0.195000 -0.212521
v 0.155506 0.195000 -0.030656
v 0.116535 0.390000 -0.008156
v 0.011535 0.390000 -0.190021
v 0.032025 0.180000 -0.184531
v 0.122025 0.180000 -0.028646
v 0.122025 0.195000 -0.028646
v 0.032025 0.195000 -0.184531
v -0.102608 0.000556 0.308858
v -0.133763 0.105000 0.188315
v -0.073493 0.050834 0.292707
v -0.268321 0.179914 -0.045762
v -0.142757 0.180290 0.176170
v -0.294648 -0.000019 -0.030566
v -0.209302 0.195000 -0.062521
v -0.104302 0.195000 0.119344
v -0.065331 0.390000 0.096844
v -0.170331 0.390000 -0.085021
v -0.175821 0.180000 -0.064531
v -0.085821 0.180000 0.091354
v -0.085821 0.195000 0.091354
v -0.175821 0.195000 -0.064531
v 0.242597 0.104929 -0.028973
v 0.320028 0.044329 0.082244
v -0.146390 0.104929 0.195609
v -0.088789 0.044329 0.318275
v 0.015160 0.090000 0.206257
v -0.088763 0.090000 0.266257
v 0.040594 0.180290 0.070312
v -0.086896 0.179914 -0.150508
vt 0.484375 0.007812
vt 0.632812 0.148438
vt 0.468750 0.062500
vt 0.992188 0.007812
vt 0.992188 0.242188
vt 0.070312 0.531250
vt 0.257812 0.531250
vt 0.257812 0.601562
vt 0.070312 0.601562
vt 0.679688 0.382812
vt 0.351562 0.382812
vt 0.695312 0.265625
vt 0.656250 0.242188
vt 0.679688 0.398438
vt 0.679688 0.453125
vt 0.617188 0.453125
vt 0.617188 0.398438
vt 0.429321 0.178223
vt 0.234009 0.178223
vt 0.460938 0.007812
vt 0.992188 0.257812
vt 0.992188 0.484375
vt 0.710938 0.484375
vt 0.710938 0.257812
vt 0.523438 0.398438
vt 0.578125 0.398438
vt 0.578125 0.445312
vt 0.523438 0.445312
vt 0.992188 0.726562
vt 0.781250 0.726562
vt 0.781250 0.523438
vt 0.992188 0.523438
vt 0.593750 0.992188
vt 0.335938 0.992188
vt 0.273438 0.750000
vt 0.656250 0.750000
vt 0.617188 0.992188
vt 0.671875 0.750000
vt 0.937500 0.750000
vt 0.992188 0.992188
vt 0.007812 0.750000
vt 0.257812 0.750000
vt 0.257812 0.992188
vt 0.007812 0.992188
vt 0.023438 0.445312
vt 0.023438 0.421875
vt 0.359375 0.421875
vt 0.359375 0.445312
vt 0.687500 0.484375
vt 0.367188 0.484375
vt 0.367188 0.468750
vt 0.687500 0.468750
vt 0.031250 0.460938
vt 0.351562 0.460938
vt 0.351562 0.484375
vt 0.031250 0.484375
vt 0.484375 0.007812
vt 0.468750 0.062500
vt 0.632812 0.148438
vt 0.992188 0.242188
vt 0.992188 0.007812
vt 0.656250 0.242188
vt 0.007812 0.750000
vt 0.007812 0.992188
vt 0.257812 0.992188
vt 0.257812 0.750000
vt 0.031250 0.460938
vt 0.031250 0.484375
vt 0.351562 0.484375
vt 0.351562 0.460938
vt 0.625000 0.250000
vt 0.007812 0.250000
vt 0.015625 0.195312
vt 0.617188 0.195312
vt 0.257812 0.734375
vt 0.765625 0.507812
vt 0.750000 0.734375
vt 0.070312 0.734375
vt 0.046875 0.734375
vt 0.031250 0.507812
vt 0.460938 0.085938
vt 0.625000 0.164062
vt 0.500000 0.140625
vt 0.625000 0.164062
vt 0.460938 0.085938
vt 0.500000 0.140625
vt 0.007812 0.265625
vt 0.031250 0.382812
vt 0.992188 0.257812
vt 0.710938 0.257812
vt 0.007812 0.007812
vt 0.038696 0.178223
vn 0.8495 0.1666 -0.5007
vn 0.3943 0.6149 0.6829
vn 0.4904 0.1955 0.8493
vn 0.0007 -1.0000 0.0013
vn -0.5000 0.0000 -0.8660
vn -0.0007 1.0000 -0.0013
vn -0.0000 -1.0000 -0.0000
vn 0.0000 1.0000 0.0000
vn 0.5000 -0.0000 0.8660
vn 0.8438 0.2249 -0.4872
vn 0.8660 0.0000 -0.5000
vn -0.8583 0.1666 0.4853
vn -0.8438 0.2249 0.4872
vn -0.8660 0.0000 0.5000
vn 0.4728 -0.3254 0.8189
vn 0.2049 0.9122 0.3547
vn 0.2035 0.9123 0.3555
vn 0.2047 0.9123 0.3546
vn 0.0822 0.9864 0.1424
usemtl c_pet
s off
f 1/1/1 29/2/1 30/3/1
f 29/2/1 1/1/1 6/4/1 4/5/1
f 17/6/2 3/7/2 33/8/2 34/9/2
f 5/10/3 35/11/3 29/12/3
f 29/2/1 4/5/1 5/13/1
f 15/14/4 20/15/4 6/16/4 1/17/4
f 18/18/5 36/19/5 20/20/5
f 4/21/6 36/22/6 35/23/6 5/24/6
f 8/25/7 22/26/7 21/27/7 7/28/7
f 10/29/8 24/30/8 23/31/8 9/32/8
f 9/33/9 23/34/9 22/35/9 8/36/9
f 21/37/5 24/38/5 10/39/5 7/40/5
f 8/41/10 7/42/10 10/43/10 9/44/10
f 25/45/5 28/46/5 14/47/5 11/48/5
f 13/49/9 27/50/9 26/51/9 12/52/9
f 12/53/11 11/54/11 14/55/11 13/56/11
f 15/57/12 32/58/12 31/59/12
f 31/59/12 18/60/12 20/61/12 15/57/12
f 31/59/12 19/62/12 18/60/12
f 22/63/13 23/64/13 24/65/13 21/66/13
f 26/67/14 27/68/14 28/69/14 25/70/14
f 15/71/15 1/72/15 30/73/15 32/74/15
f 2/75/16 3/7/16 30/76/16 29/77/16
f 17/6/17 16/78/17 31/79/17 32/80/17
f 3/7/18 17/6/18 32/80/18 30/76/18
f 16/78/19 34/9/19 33/8/19 2/75/19
f 3/81/11 2/82/11 33/83/11
f 16/84/14 17/85/14 34/86/14
f 29/12/3 35/11/3 31/87/3
f 31/87/3 35/11/3 19/88/3
f 35/23/6 36/22/6 18/89/6 19/90/6
f 6/91/5 36/19/5 4/92/5
f 20/20/5 36/19/5 6/91/5
